<?xml version="1.0" encoding="UTF-8" standalone="no"?>
<!-- Created with Inkscape (http://www.inkscape.org/) -->

<svg
   version="1.1"
   id="svg48423"
   xml:space="preserve"
   width="1066.6667"
   height="1066.6667"
   viewBox="0 0 1066.6667 1066.6667"
   sodipodi:docname="doy-pack-foil-food-publicdomainvectors.org.svg"
   inkscape:version="1.1.2 (b8e25be833, 2022-02-05)"
   xmlns:inkscape="http://www.inkscape.org/namespaces/inkscape"
   xmlns:sodipodi="http://sodipodi.sourceforge.net/DTD/sodipodi-0.dtd"
   xmlns="http://www.w3.org/2000/svg"
   xmlns:svg="http://www.w3.org/2000/svg"><defs
     id="defs48427"><clipPath
       clipPathUnits="userSpaceOnUse"
       id="clipPath48437"><path
         d="M 0,800 H 800 V 0 H 0 Z"
         id="path48435" /></clipPath></defs><sodipodi:namedview
     id="namedview48425"
     pagecolor="#ffffff"
     bordercolor="#666666"
     borderopacity="1.0"
     inkscape:pageshadow="2"
     inkscape:pageopacity="0.0"
     inkscape:pagecheckerboard="0"
     showgrid="false"
     inkscape:zoom="0.77906244"
     inkscape:cx="533.33337"
     inkscape:cy="533.33337"
     inkscape:window-width="1920"
     inkscape:window-height="1018"
     inkscape:window-x="-8"
     inkscape:window-y="-8"
     inkscape:window-maximized="1"
     inkscape:current-layer="g48429" /><g
     id="g48429"
     inkscape:groupmode="layer"
     inkscape:label="doy-pack-foil-food-publicdomainvectors.org"
     transform="matrix(1.3333333,0,0,-1.3333333,0,1066.6667)"><g
       id="g48431"><g
         id="g48433"
         clip-path="url(#clipPath48437)"><path
           d="M -1.811,0 H 799.035 V 800.846 H -1.811 Z"
           style="fill:#666666;fill-opacity:1;fill-rule:evenodd;stroke:none"
           id="path48439" /><path
           d="m 415.703,68.367 c 136.901,0 248.557,14.697 248.557,32.717 0,18.02 -111.656,32.717 -248.557,32.717 -136.9,0 -248.555,-14.697 -248.555,-32.717 0,-18.02 111.655,-32.717 248.555,-32.717"
           style="fill:#4d4d4d;fill-opacity:1;fill-rule:evenodd;stroke:none"
           id="path48441" /><path
           d="m 118.015,651.243 35.392,44.826 75.121,-49.388 -45.044,-57.052 z"
           style="fill:#f2f2f2;fill-opacity:1;fill-rule:evenodd;stroke:none"
           id="path48443" /><path
           d="m 176.472,584.416 55.502,70.294 11.207,-8.848 -55.502,-70.295 z"
           style="fill:#e6e6e6;fill-opacity:1;fill-rule:evenodd;stroke:none"
           id="path48445" /><path
           d="m 122.865,650.417 1.342,1.7 59.065,-55.347 -1.343,-1.7 z"
           style="fill:#ffffff;fill-opacity:1;fill-rule:evenodd;stroke:none"
           id="path48447" /><path
           d="m 124.207,652.117 1.343,1.699 59.064,-55.346 -1.342,-1.7 z"
           style="fill:#e3e3e3;fill-opacity:1;fill-rule:evenodd;stroke:none"
           id="path48449" /><path
           d="m 127.694,656.533 c 0.449,0.568 0.895,1.134 1.342,1.7 20.142,-17.875 40.283,-35.75 60.425,-53.625 -0.447,-0.566 -0.895,-1.133 -1.343,-1.699 -20.14,17.874 -40.282,35.749 -60.424,53.624"
           style="fill:#ffffff;fill-opacity:1;fill-rule:evenodd;stroke:none"
           id="path48451" /><path
           d="m 129.036,658.233 c 0.448,0.567 0.895,1.134 1.341,1.7 20.144,-17.875 40.284,-35.749 60.427,-53.625 -0.449,-0.567 -0.897,-1.133 -1.343,-1.7 -20.142,17.875 -40.283,35.749 -60.425,53.625"
           style="fill:#e3e3e3;fill-opacity:1;fill-rule:evenodd;stroke:none"
           id="path48453" /><path
           d="m 132.523,662.65 c 0.449,0.566 0.895,1.132 1.342,1.7 20.595,-17.301 41.189,-34.601 61.784,-51.903 -0.447,-0.567 -0.893,-1.133 -1.341,-1.699 -20.595,17.3 -41.19,34.601 -61.785,51.902"
           style="fill:#ffffff;fill-opacity:1;fill-rule:evenodd;stroke:none"
           id="path48455" /><path
           d="m 133.865,664.349 c 0.448,0.567 0.895,1.133 1.342,1.7 20.594,-17.301 41.189,-34.601 61.784,-51.903 -0.447,-0.566 -0.894,-1.132 -1.342,-1.699 -20.595,17.301 -41.189,34.601 -61.784,51.902"
           style="fill:#e3e3e3;fill-opacity:1;fill-rule:evenodd;stroke:none"
           id="path48457" /><path
           d="m 137.353,668.766 c 0.446,0.566 0.893,1.133 1.341,1.7 21.048,-16.727 42.096,-33.455 63.145,-50.181 -0.448,-0.567 -0.895,-1.133 -1.342,-1.699 -21.049,16.726 -42.097,33.453 -63.144,50.18"
           style="fill:#ffffff;fill-opacity:1;fill-rule:evenodd;stroke:none"
           id="path48459" /><path
           d="m 138.694,670.465 c 0.449,0.567 0.893,1.133 1.342,1.7 21.049,-16.727 42.095,-33.454 63.145,-50.18 -0.449,-0.567 -0.895,-1.133 -1.342,-1.7 -21.049,16.726 -42.097,33.454 -63.145,50.18"
           style="fill:#e3e3e3;fill-opacity:1;fill-rule:evenodd;stroke:none"
           id="path48461" /><path
           d="m 142.182,674.881 c 0.446,0.567 0.893,1.134 1.341,1.701 21.501,-16.153 43.002,-32.306 64.504,-48.458 -0.446,-0.567 -0.895,-1.133 -1.341,-1.7 -21.503,16.153 -43.003,32.305 -64.504,48.457"
           style="fill:#ffffff;fill-opacity:1;fill-rule:evenodd;stroke:none"
           id="path48463" /><path
           d="m 143.523,676.581 c 0.449,0.566 0.894,1.133 1.342,1.7 21.501,-16.153 43.001,-32.304 64.504,-48.458 -0.447,-0.566 -0.895,-1.133 -1.342,-1.699 -21.502,16.152 -43.003,32.305 -64.504,48.457"
           style="fill:#e3e3e3;fill-opacity:1;fill-rule:evenodd;stroke:none"
           id="path48465" /><path
           d="m 147.011,680.997 c 0.447,0.567 0.893,1.134 1.342,1.7 21.953,-15.577 43.907,-31.156 65.862,-46.735 -0.446,-0.566 -0.893,-1.132 -1.341,-1.699 -21.956,15.578 -43.909,31.156 -65.863,46.734"
           style="fill:#ffffff;fill-opacity:1;fill-rule:evenodd;stroke:none"
           id="path48467" /><path
           d="m 148.353,682.697 c 0.446,0.567 0.893,1.134 1.341,1.7 21.955,-15.578 43.909,-31.156 65.863,-46.735 -0.447,-0.567 -0.893,-1.133 -1.342,-1.7 -21.955,15.579 -43.909,31.156 -65.862,46.735"
           style="fill:#e3e3e3;fill-opacity:1;fill-rule:evenodd;stroke:none"
           id="path48469" /><path
           d="m 151.838,687.113 1.344,1.7 67.223,-45.013 -1.342,-1.699 z"
           style="fill:#ffffff;fill-opacity:1;fill-rule:evenodd;stroke:none"
           id="path48471" /><path
           d="m 153.182,688.813 1.341,1.7 67.224,-45.013 -1.342,-1.7 z"
           style="fill:#e3e3e3;fill-opacity:1;fill-rule:evenodd;stroke:none"
           id="path48473" /><path
           d="M 611.984,104.778 H 220.869 L 156.03,537.725 264.79,675.766 587.78,661.585 c 27.999,-1.229 51.628,-13.002 69.469,-34.615 17.842,-21.611 24.929,-47.042 20.832,-74.767 z"
           style="fill:#ffdc4f;fill-opacity:1;fill-rule:evenodd;stroke:none"
           id="path48475" /><path
           d="M 611.984,104.778 H 220.869 l -48.606,324.559 c 59.002,64.135 143.028,104.245 236.295,104.245 100.275,0 189.885,-46.351 249.179,-119.093 z"
           style="fill:#ffcc00;fill-opacity:1;fill-rule:evenodd;stroke:none"
           id="path48477" /><path
           d="M 611.984,104.778 H 220.869 L 201.75,232.436 c 67.196,95.124 178,157.246 303.319,157.246 51.327,0 100.22,-10.423 144.681,-29.261 z"
           style="fill:#f5c400;fill-opacity:1;fill-rule:evenodd;stroke:none"
           id="path48479" /><path
           d="M 611.984,104.778 H 220.869 l -2.429,16.211 c 45.434,7.789 116.886,12.812 197.263,12.812 81.191,0 153.281,-5.124 198.641,-13.05 z"
           style="fill:#e6b800;fill-opacity:1;fill-rule:evenodd;stroke:none"
           id="path48481" /><path
           d="m 249.579,104.778 -48.767,489.785 25.172,31.949 393.888,-18.134 -47.627,-503.6 z"
           style="fill:#e0b300;fill-opacity:1;fill-rule:evenodd;stroke:none"
           id="path48483" /><path
           d="m 249.579,104.778 -16.546,166.188 c 67.773,73.011 164.56,118.716 272.036,118.716 32.12,0 63.285,-4.083 93.008,-11.755 L 572.245,104.778 Z"
           style="fill:#d4aa00;fill-opacity:1;fill-rule:evenodd;stroke:none"
           id="path48485" /><path
           d="m 249.579,104.778 -2.032,20.398 c 44.259,5.354 103.303,8.625 168.156,8.625 60.28,0 115.542,-2.826 158.575,-7.522 l -2.033,-21.501 c -106.224,-17.333 -213.839,-16.528 -322.666,0"
           style="fill:#c79f00;fill-opacity:1;fill-rule:evenodd;stroke:none"
           id="path48487" /><path
           d="m 215.043,451.623 -14.231,142.94 25.172,31.949 393.417,-18.112 c 0.046,-1.199 0.094,-2.397 0.132,-3.599 L 604.841,449.449 C 573.874,316.159 498.4,222.033 410.198,222.033 c -88.683,0 -164.506,95.147 -195.155,229.59"
           style="fill:#f2c200;fill-opacity:1;fill-rule:evenodd;stroke:none"
           id="path48489" /><path
           d="m 215.043,451.623 -1.54,15.482 c 54.211,41.715 121.78,66.477 195.055,66.477 74.492,0 143.092,-25.585 197.756,-68.56 l -1.473,-15.573 C 573.874,316.159 498.4,222.033 410.198,222.033 c -88.683,0 -164.506,95.147 -195.155,229.59"
           style="fill:#edbe00;fill-opacity:1;fill-rule:evenodd;stroke:none"
           id="path48491" /><path
           d="M 583.843,381.276 C 546.138,285.186 482.441,222.033 410.198,222.033 c -52.005,0 -99.581,32.73 -136.225,86.906 63.406,50.528 143.718,80.743 231.096,80.743 27.035,0 53.381,-2.917 78.774,-8.406"
           style="fill:#e0b300;fill-opacity:1;fill-rule:evenodd;stroke:none"
           id="path48493" /><path
           d="m 215.007,451.985 -14.195,142.578 25.172,31.949 165.649,-7.626 c 2.122,-10.013 3.249,-20.418 3.249,-31.1 0,-79.02 -61.216,-143.078 -136.729,-143.078 -15.077,0 -29.581,2.562 -43.146,7.277"
           style="fill:#ffce08;fill-opacity:1;fill-rule:evenodd;stroke:none"
           id="path48495" /><path
           d="m 215.007,451.985 -1.504,15.121 c 48.19,37.082 106.935,60.758 170.86,65.563 -20.627,-51.657 -69.365,-87.961 -126.21,-87.961 -15.077,0 -29.581,2.562 -43.146,7.277"
           style="fill:#fac800;fill-opacity:1;fill-rule:evenodd;stroke:none"
           id="path48497" /><path
           d="m 433.718,554.055 c 72.008,0 127.268,-85.146 123.426,-190.178 -3.842,-105.033 -65.331,-190.18 -137.338,-190.18 -72.007,0 -127.267,85.147 -123.425,190.18 3.84,105.032 65.33,190.178 137.337,190.178"
           style="fill:#eded7c;fill-opacity:1;fill-rule:evenodd;stroke:none"
           id="path48499" /><path
           d="m 433.718,554.055 c 72.008,0 127.268,-85.146 123.426,-190.178 -0.599,-16.389 -2.604,-32.293 -5.831,-47.465 -37.249,-58.624 -86.76,-94.379 -141.115,-94.379 -35.432,0 -68.81,15.201 -98.074,42.018 -11.232,29.017 -17.083,63.21 -15.743,99.826 3.84,105.032 65.33,190.178 137.337,190.178"
           style="fill:#ffffb2;fill-opacity:1;fill-rule:evenodd;stroke:none"
           id="path48501" /><path
           d="m 345.588,239.574 -1.92,1.092 c 0.639,-0.37 1.279,-0.732 1.92,-1.092 M 509.436,517.28 c 31.062,-34.611 50.011,-90.427 47.708,-153.403 -0.599,-16.389 -2.604,-32.293 -5.831,-47.465 -4.635,-7.297 -9.462,-14.238 -14.463,-20.802 l -0.134,-0.176 c -1.862,-2.437 -3.745,-4.823 -5.653,-7.153 l -0.018,-0.022 c -1.242,-1.517 -2.494,-3.009 -3.757,-4.48 l -0.21,-0.246 c -1.892,-2.2 -3.805,-4.347 -5.739,-6.443 l -0.407,-0.436 c -1.132,-1.22 -2.272,-2.421 -3.418,-3.604 l -0.5,-0.517 c -0.632,-0.648 -1.266,-1.291 -1.902,-1.929 l -0.2,-0.197 c -1.172,-1.171 -2.352,-2.32 -3.539,-3.452 l -0.847,-0.805 c -1.014,-0.958 -2.035,-1.9 -3.06,-2.831 -0.278,-0.251 -0.555,-0.504 -0.832,-0.753 -0.577,-0.518 -1.156,-1.03 -1.737,-1.539 -0.359,-0.316 -0.721,-0.626 -1.082,-0.939 -0.914,-0.788 -1.83,-1.567 -2.75,-2.333 -0.381,-0.318 -0.764,-0.635 -1.148,-0.949 -0.556,-0.456 -1.112,-0.911 -1.67,-1.358 -0.76,-0.609 -1.523,-1.21 -2.288,-1.804 -0.53,-0.411 -1.062,-0.816 -1.594,-1.219 -0.475,-0.36 -0.951,-0.716 -1.427,-1.071 -0.767,-0.57 -1.536,-1.131 -2.309,-1.686 -0.537,-0.386 -1.075,-0.771 -1.614,-1.148 -0.514,-0.362 -1.029,-0.721 -1.545,-1.074 -0.735,-0.504 -1.473,-1 -2.21,-1.489 -0.557,-0.371 -1.116,-0.733 -1.674,-1.094 -0.59,-0.38 -1.18,-0.757 -1.773,-1.129 -0.448,-0.283 -0.896,-0.565 -1.346,-0.842 -0.882,-0.543 -1.768,-1.073 -2.656,-1.596 -0.453,-0.267 -0.91,-0.529 -1.364,-0.792 -0.767,-0.441 -1.537,-0.875 -2.308,-1.302 -0.467,-0.259 -0.936,-0.513 -1.405,-0.767 -0.768,-0.414 -1.539,-0.821 -2.31,-1.221 -0.399,-0.205 -0.798,-0.412 -1.195,-0.613 -0.958,-0.486 -1.918,-0.959 -2.882,-1.421 -0.38,-0.182 -0.761,-0.36 -1.141,-0.538 -0.815,-0.383 -1.633,-0.756 -2.453,-1.122 -0.288,-0.129 -0.575,-0.261 -0.863,-0.388 -1.016,-0.445 -2.035,-0.873 -3.057,-1.292 -0.367,-0.152 -0.736,-0.301 -1.104,-0.448 -1.029,-0.413 -2.059,-0.815 -3.094,-1.201 -0.283,-0.106 -0.568,-0.207 -0.851,-0.31 -0.899,-0.329 -1.803,-0.647 -2.707,-0.957 -0.291,-0.098 -0.583,-0.2 -0.876,-0.299 -1.074,-0.358 -2.152,-0.702 -3.232,-1.033 -0.311,-0.094 -0.62,-0.186 -0.932,-0.278 -1.078,-0.321 -2.159,-0.632 -3.244,-0.925 l -0.458,-0.122 c -1.056,-0.281 -2.112,-0.544 -3.173,-0.797 l -0.886,-0.21 c -1.12,-0.26 -2.246,-0.505 -3.373,-0.735 -0.245,-0.048 -0.491,-0.094 -0.736,-0.144 -1.06,-0.208 -2.122,-0.403 -3.187,-0.585 -0.161,-0.026 -0.321,-0.057 -0.481,-0.084 -1.174,-0.195 -2.352,-0.369 -3.529,-0.531 l -0.775,-0.103 c -1.175,-0.154 -2.353,-0.293 -3.535,-0.414 -0.175,-0.018 -0.349,-0.031 -0.524,-0.047 -1.09,-0.107 -2.183,-0.196 -3.277,-0.273 -0.217,-0.017 -0.435,-0.034 -0.654,-0.048 -1.184,-0.078 -2.373,-0.136 -3.562,-0.179 -0.251,-0.009 -0.504,-0.015 -0.755,-0.023 -1.228,-0.038 -2.456,-0.061 -3.69,-0.061 -1.335,0 -2.667,0.025 -3.998,0.068 l -0.297,0.008 c -1.311,0.047 -2.621,0.112 -3.926,0.198 l -0.12,0.007 c -1.289,0.088 -2.573,0.198 -3.856,0.325 l -0.37,0.037 c -1.272,0.13 -2.542,0.278 -3.807,0.448 l -0.212,0.028 c -1.233,0.167 -2.465,0.355 -3.694,0.558 l -0.503,0.085 c -1.196,0.203 -2.387,0.423 -3.576,0.661 l -0.468,0.094 c -1.151,0.235 -2.299,0.488 -3.444,0.753 l -0.65,0.153 c -1.133,0.272 -2.263,0.556 -3.39,0.857 l -0.596,0.162 c -1.086,0.296 -2.167,0.607 -3.247,0.931 l -0.805,0.245 c -1.032,0.316 -2.059,0.647 -3.084,0.991 l -0.971,0.329 c -0.97,0.332 -1.935,0.675 -2.898,1.029 -0.337,0.124 -0.673,0.248 -1.008,0.376 -0.922,0.348 -1.84,0.707 -2.758,1.075 -0.44,0.177 -0.879,0.357 -1.319,0.538 -0.855,0.355 -1.707,0.717 -2.559,1.089 -0.404,0.176 -0.808,0.355 -1.212,0.535 -0.813,0.365 -1.624,0.74 -2.436,1.121 -0.558,0.262 -1.115,0.53 -1.671,0.8 -0.741,0.361 -1.482,0.726 -2.219,1.1 -0.467,0.236 -0.937,0.476 -1.405,0.72 -0.708,0.369 -1.413,0.746 -2.118,1.126 -0.666,0.36 -1.33,0.724 -1.993,1.094 -0.641,0.36 -1.281,0.722 -1.92,1.092 -0.663,0.382 -1.323,0.773 -1.981,1.166 -0.464,0.277 -0.928,0.558 -1.389,0.841 -0.76,0.464 -1.52,0.935 -2.277,1.414 -0.421,0.267 -0.839,0.538 -1.258,0.808 -0.957,0.617 -1.908,1.248 -2.855,1.888 l -0.766,0.519 c -0.87,0.594 -1.738,1.198 -2.601,1.811 l -0.455,0.325 c -1.235,0.883 -2.463,1.787 -3.688,2.71 l -0.378,0.285 c -2.336,1.772 -4.651,3.616 -6.943,5.531 l -0.029,0.024 c -2.333,1.95 -4.641,3.971 -6.924,6.063 -11.232,29.017 -17.083,63.21 -15.743,99.826 2.65,72.442 32.723,135.417 74.755,167.528 12.278,1.438 24.764,2.177 37.422,2.177 35.226,0 69.137,-5.725 100.878,-16.302"
           style="fill:#ffff99;fill-opacity:1;fill-rule:evenodd;stroke:none"
           id="path48503" /><path
           d="m 557.067,386.039 c 0.314,-7.272 0.35,-14.664 0.077,-22.162 -0.599,-16.389 -2.604,-32.293 -5.831,-47.465 -37.249,-58.624 -86.76,-94.379 -141.115,-94.379 -35.432,0 -68.81,15.201 -98.074,42.018 -7.285,18.819 -12.303,39.816 -14.568,62.238 59.234,40.023 130.644,63.393 207.513,63.393 17.651,0 35.006,-1.261 51.998,-3.643"
           style="fill:#f7f78b;fill-opacity:1;fill-rule:evenodd;stroke:none"
           id="path48505" /></g></g></g></svg>
